<svg xmlns="http://www.w3.org/2000/svg" xmlns:xlink="http://www.w3.org/1999/xlink" version="1.1" x="0px" y="0px" viewBox="0 0 90 90" enable-background="new 0 0 100 100" xml:space="preserve" width="90" height="90" style="position: absolute; top: 0px; bottom: 0px; left: 0px; right: 0px; width: 80px; height: 80px; display: block; margin: auto;"><path transform="translate(-5,-5)" d="M49.999,5c-24.853,0 -44.999,20.146 -44.999,44.999c0,24.852 20.146,45.001 44.999,45.001c24.853,0 45.001,-20.149 45.001,-45.001c0,-24.853 -20.148,-44.999 -45.001,-44.999zM50.003,91.794c-28.881,0 -37.21,-23.146 -37.21,-27.946c0,-26.37 37.21,-23.834 37.21,-3.434c0,-20.4 37.251,-22.675 37.251,3.434c0,6.931 -8.37,27.946 -37.251,27.946zM37.12,60.812c-2.167,0 -3.917,1.753 -3.917,3.917c0,2.163 1.75,3.92 3.917,3.92c2.162,0 3.919,-1.757 3.919,-3.92c0,-2.165 -1.757,-3.917 -3.919,-3.917zM62.881,60.812c-2.168,0 -3.918,1.753 -3.918,3.917c0,2.163 1.75,3.92 3.918,3.92c2.161,0 3.918,-1.757 3.918,-3.92c0,-2.165 -1.757,-3.917 -3.918,-3.917zM49.999,85.646l8.779,-13.147h-17.556z" fill="#000000" class="fill c1"></path></svg>